<svg xmlns="http://www.w3.org/2000/svg" width="156" height="587" viewBox="0 0 156 587">
    <g fill="none" fill-rule="evenodd">
        <path fill="#FFF" d="M0-622h1440v4897H0z"/>
        <path fill="#FF500A" d="M-300.05 119.416a4834.907 4834.907 0 0 1 68.154 63.286c-13.676-.66-27.508 1.916-41.926 8.076-26.613 11.371-39.423 52.876-23.578 77.124 17.865 27.336 37.5 53.099 58.188 77.937-28.716-15.964-57.987-30.9-88.55-43.663-22.208-9.272-53.808 4.173-65.203 24.57-12.376 22.157-10.794 50.194 7.096 69.167A8364.584 8364.584 0 0 0-98.9 685.756c21.46 20.643 58.506 25.099 80.636 2.236 20.66-21.345 25.253-58.494 2.234-80.638a8240.864 8240.864 0 0 1-35.115-33.984c12.803 4.294 25.78 8.061 38.958 11.138 23.94 5.59 52.366-1.588 65.203-24.57 13.01-23.287 9.554-48.728-7.095-69.165-3.278-4.023-6.596-8.01-9.934-11.978 14.808 7 30.043 12.935 45.86 17.26 23.589 6.448 52.691-2.175 65.202-24.57 12.63-22.61 10.312-49.6-7.096-69.167A4842.84 4842.84 0 0 0 66 321.108c.888.363 1.764.752 2.651 1.114 20.894 8.492 47.358-2.626 60.54-18.835 12.755-15.684 19.414-44.42 6.482-62.471-30.483-42.541-66.335-78.313-103.87-114.557-2.705-2.61-5.4-5.23-8.094-7.857 19.528-4.593 37.012-19.028 42.138-38.765 7.88-30.369-7.55-61.326-37.864-71.211-46.459-15.144-94.71-17.921-142.89-11.162-35.052 4.92-52.364 46.854-40.333 77.207-24.47-14.3-48.931-28.612-73.41-42.884-24.648-14.37-55.767-9.385-73.831 12.828-16.743 20.582-18.678 55.676 2.43 74.9z"/>
    </g>
</svg>
